<svg xmlns="http://www.w3.org/2000/svg" viewBox="0 0 256 256"><path fill="#014478" d="M255.16 0h.84v256H0v-.84L255.16 0m-71.78 128.37c-5.43 5.93-12.38 10.9-15.5 18.57-2.66 6-2.7 12.76-1.66 19.13 10.4-9.16 19.6-19.65 29.75-29.1 2.5-2.18 5.7-3.64 9.05-3.7 7.3-.35 14.28 5.48 15.25 12.72.76 4.7-1.05 9.55-4.4 12.9L195.4 179.4c-2.58 2.64-5.57 4.95-7.54 8.13 6.07 1.17 12.5 1 18.28-1.38 8-3 13.2-10.12 19.27-15.74 6.1-5.74 10.12-13.92 9.65-22.42.6-13.88-10.55-26.8-24.13-29-10-2-20.7 1.9-27.56 9.37m10.05 23.1c-3.5 1.07-5.78 4.2-8.34 6.63l-31.93 32.1c-4.18 3.66-2.18 11.24 3.23 12.38 2.83.83 5.78-.32 7.7-2.46l35.03-35c1.9-1.88 3.77-4.25 3.32-7.1-.2-4.33-4.87-7.6-9-6.54M136.9 174.9c-3.95 4.06-8.14 7.9-11.9 12.1-6.48 7.45-8.4 18.25-5.63 27.62 2.5 8.18 8.64 15.2 16.57 18.5 7.56 3.46 16.58 3.45 24.1-.12 4.92-2.04 8.76-5.83 12.4-9.6 4.4-4.62 9.57-8.8 12.4-14.67 3.36-6.3 3.6-13.77 2.14-20.64-10.18 9.42-19.52 19.73-29.6 29.24-6.42 5.94-17.78 3.98-22.16-3.5-3.53-5.46-2.85-13.24 1.76-17.9 6.04-6.28 12.36-12.3 18.45-18.56 3.3-3.47 7.08-6.54 9.9-10.46-9.98-2.93-21.24.57-28.4 7.97z"/><path fill="#2f3133" d="M33.1 36.12C36.3 26.17 45.57 18.36 56 17.25c14.77-2.2 29.8 9.73 30.73 24.65.4 7.72-.23 15.47.3 23.2 4.18.6 9.83-.98 12.5 3.3.6 2.15.45 4.4.5 6.62l-.1 47.04c.2 2.34-1.83 4.38-4.05 4.72-3.62.48-7.27.2-10.9.23-20.02-.04-40.04.01-60.06-.01-3.92.5-7.17-3.1-6.86-6.92L18 74.97c-.08-3.16.15-7.04 3.34-8.7 3.24-1.46 6.98-.76 10.43-1.24.42-9.62-1.26-19.5 1.32-28.92m16.66-1.38C46.63 37.6 45.5 41.9 45.57 46c.07 6.37-.2 12.76.25 19.12 9.06.37 18.15.4 27.2 0 .33-7.05.28-14.13.08-21.18-.08-4.15-2.37-8-5.65-10.44-5.13-4.05-13.15-3.4-17.7 1.24M49 90c-.1 4 3.26 6.6 5.67 9.3-.28 4.7-1.6 9.25-2.34 13.88 4.47.8 9.02.54 13.52.43-.12-4.84-1.58-9.52-1.73-14.36 2.13-2.6 5.25-4.87 5.55-8.47 1.04-5.78-3.96-11.52-9.73-11.7C54 78.48 48.46 84.08 49 90z"/><path d="M183.38 128.37c6.85-7.48 17.55-11.38 27.56-9.37 13.58 2.2 24.74 15.12 24.13 29 .47 8.5-3.54 16.68-9.65 22.42-6.06 5.62-11.27 12.74-19.27 15.74-5.77 2.4-12.2 2.55-18.28 1.38 1.97-3.18 4.96-5.5 7.54-8.13l20.46-20.53c3.34-3.34 5.15-8.18 4.4-12.9-.97-7.24-7.95-13.07-15.25-12.72-3.35.06-6.55 1.52-9.05 3.7-10.15 9.45-19.34 19.94-29.75 29.1-1.03-6.37-1-13.14 1.66-19.13 3.13-7.67 10.08-12.64 15.5-18.57zm10.05 23.1c4.14-1.06 8.8 2.2 9 6.54.45 2.86-1.42 5.23-3.32 7.1l-35.03 35c-1.92 2.14-4.87 3.3-7.7 2.46-5.4-1.14-7.4-8.72-3.23-12.38l31.93-32.1c2.56-2.42 4.83-5.56 8.34-6.63zM136.9 174.9c7.15-7.4 18.4-10.9 28.4-7.97-2.82 3.92-6.6 7-9.9 10.46l-18.45 18.56c-4.6 4.66-5.3 12.44-1.76 17.9 4.38 7.48 15.74 9.44 22.16 3.5 10.1-9.5 19.43-19.82 29.6-29.24 1.47 6.87 1.22 14.34-2.14 20.64-2.83 5.88-8 10.05-12.4 14.67-3.63 3.77-7.47 7.56-12.4 9.6-7.5 3.57-16.53 3.58-24.1.12-7.93-3.3-14.06-10.33-16.57-18.5-2.77-9.37-.85-20.17 5.63-27.62 3.77-4.22 7.96-8.05 11.9-12.1z" fill="#fff"/></svg>